<svg xmlns="http://www.w3.org/2000/svg" viewBox="0 0 88 88"><title>Artboard-34</title><g id="Truck_Delivery" data-name="Truck Delivery"><path d="M73,64a3,3,0,1,0,3,3A3.0033,3.0033,0,0,0,73,64Zm0,4a1,1,0,1,1,1-1A1.0006,1.0006,0,0,1,73,68Z" style="fill:#1d1b1e"/><path d="M30,64a3,3,0,1,0,3,3A3.0033,3.0033,0,0,0,30,64Zm0,4a1,1,0,1,1,1-1A1.0006,1.0006,0,0,1,30,68Z" style="fill:#1d1b1e"/><path d="M62,61a1,1,0,0,0,1-1V34H73.5078L83,46.34V60a1,1,0,0,0,2,0V46a1.0026,1.0026,0,0,0-.207-.6094l-10-13A1.0012,1.0012,0,0,0,74,32H62a1,1,0,0,0-1,1V60A1,1,0,0,0,62,61Z" style="fill:#1d1b1e"/><path d="M79.8477,46.4414a1,1,0,0,0-.1045-1.0508l-6.92-9A1.0009,1.0009,0,0,0,72.03,36H66a1,1,0,0,0-1,1v9a1,1,0,0,0,1,1H78.95A1.0017,1.0017,0,0,0,79.8477,46.4414ZM67,45V38h4.5381L76.92,45Z" style="fill:#1d1b1e"/><path d="M54,27h3V60a1,1,0,0,0,2,0V26a1,1,0,0,0-1-1H54a1,1,0,0,0,0,2Z" style="fill:#1d1b1e"/><path d="M20,61a1,1,0,0,0,1-1V27h3a1,1,0,0,0,0-2H20a1,1,0,0,0-1,1V60A1,1,0,0,0,20,61Z" style="fill:#1d1b1e"/><path d="M87,63H78.7361a6.9838,6.9838,0,0,0-11.4722,0H35.7361a6.9838,6.9838,0,0,0-11.4722,0H16a1,1,0,0,0-1,1v4a1,1,0,0,0,1,1h7.2949a6.9958,6.9958,0,0,0,13.41,0h29.59a6.9958,6.9958,0,0,0,13.41,0H87a1,1,0,0,0,1-1V64A1,1,0,0,0,87,63ZM17,67V65h6.291A7.7475,7.7475,0,0,0,23,67Zm13,5a5,5,0,1,1,5-5A5.0059,5.0059,0,0,1,30,72Zm7-5a7.7849,7.7849,0,0,0-.291-2H66.291A7.8107,7.8107,0,0,0,66,67Zm36,5a5,5,0,1,1,5-5A5.0059,5.0059,0,0,1,73,72Zm13-5H80a7.7387,7.7387,0,0,0-.291-2H86Z" style="fill:#1d1b1e"/><path d="M17,39a1,1,0,0,0-1-1H1a1,1,0,0,0,0,2H16A1,1,0,0,0,17,39Z" style="fill:#1d1b1e"/><path d="M17,45a1,1,0,0,0-1-1H5a1,1,0,0,0,0,2H16A1,1,0,0,0,17,45Z" style="fill:#1d1b1e"/><path d="M17,51a1,1,0,0,0-1-1H10a1,1,0,0,0,0,2h6A1,1,0,0,0,17,51Z" style="fill:#1d1b1e"/><path d="M39,38A12,12,0,1,0,27,26,12.0131,12.0131,0,0,0,39,38Zm0-22A10,10,0,1,1,29,26,10.0117,10.0117,0,0,1,39,16Z" style="fill:#1d1b1e"/><path d="M41.293,29.707a1,1,0,0,0,1.414-1.414L40,25.5859V22a1,1,0,0,0-2,0v4a.9993.9993,0,0,0,.293.707Z" style="fill:#1d1b1e"/><path d="M66,49a1,1,0,0,0,0,2h2a1,1,0,0,0,0-2Z" style="fill:#1d1b1e"/></g></svg>